<svg width="312" height="270" viewBox="0 0 312 270" fill="none" xmlns="http://www.w3.org/2000/svg">
<path d="M252.631 220.274C267.535 233.229 270.584 243.783 263.068 250.307C255.551 256.831 237.498 259.261 210.574 255.956C183.651 252.65 153.146 244.257 125.678 233.437C98.2115 222.618 73.9881 209.465 59.0846 196.509C44.1811 183.554 41.1315 173 48.6479 166.476C56.1647 159.952 74.218 157.521 101.141 160.827C128.065 164.133 158.57 172.526 186.038 183.345C213.504 194.164 237.728 207.318 252.631 220.274Z" fill="url(#paint0_linear_5_32)" stroke="white" stroke-width="5"/>
<path d="M259 2H25L127.719 186H164.799L259 2Z" fill="url(#paint1_linear_5_32)"/>
<rect width="70" height="70" transform="matrix(0.999848 -0.0174524 0.920505 0.390731 84 113.222)" fill="white"/>
<rect x="166" y="158" width="70" height="70" fill="white"/>
<rect width="70" height="70" transform="matrix(0.927184 0.374607 0 1 81 132)" fill="white"/>
<g clip-path="url(#clip0_5_32)">
<mask id="mask0_5_32" style="mask-type:luminance" maskUnits="userSpaceOnUse" x="60" y="24" width="30" height="30">
<path d="M90 24H60V54H90V24Z" fill="white"/>
</mask>
<g mask="url(#mask0_5_32)">
<path d="M87.375 35.1125L86.0625 29.65C85.7875 28.525 84.8125 27.75 83.675 27.75H66.3125C65.1875 27.75 64.2 28.5375 63.9375 29.65L62.625 35.1125C62.325 36.3875 62.6 37.6875 63.4 38.7125C63.5 38.85 63.6375 38.95 63.75 39.075V47.75C63.75 49.125 64.875 50.25 66.25 50.25H83.75C85.125 50.25 86.25 49.125 86.25 47.75V39.075C86.3625 38.9625 86.5 38.85 86.6 38.725C87.4 37.7 87.6875 36.3875 87.375 35.1125ZM83.6375 30.2375L84.95 35.7C85.075 36.225 84.9625 36.75 84.6375 37.1625C84.4625 37.3875 84.0875 37.75 83.4625 37.75C82.7 37.75 82.0375 37.1375 81.95 36.325L81.225 30.25L83.6375 30.2375ZM76.25 30.25H78.7L79.375 35.9C79.4375 36.3875 79.2875 36.875 78.9625 37.2375C78.6875 37.5625 78.2875 37.75 77.775 37.75C76.9375 37.75 76.25 37.0125 76.25 36.1125V30.25ZM70.6125 35.9L71.3 30.25H73.75V36.1125C73.75 37.0125 73.0625 37.75 72.1375 37.75C71.7125 37.75 71.325 37.5625 71.025 37.2375C70.7125 36.875 70.5625 36.3875 70.6125 35.9ZM65.05 35.7L66.3125 30.25H68.775L68.05 36.325C67.95 37.1375 67.3 37.75 66.5375 37.75C65.925 37.75 65.5375 37.3875 65.375 37.1625C65.0375 36.7625 64.925 36.225 65.05 35.7ZM66.25 47.75V40.2125C66.35 40.225 66.4375 40.25 66.5375 40.25C67.625 40.25 68.6125 39.8 69.3375 39.0625C70.0875 39.8125 71.0875 40.25 72.225 40.25C73.3125 40.25 74.2875 39.8 75.0125 39.0875C75.75 39.8 76.75 40.25 77.875 40.25C78.925 40.25 79.925 39.8125 80.675 39.0625C81.4 39.8 82.3875 40.25 83.475 40.25C83.575 40.25 83.6625 40.225 83.7625 40.2125V47.75H66.25Z" fill="white"/>
</g>
</g>
<g clip-path="url(#clip1_5_32)">
<mask id="mask1_5_32" style="mask-type:luminance" maskUnits="userSpaceOnUse" x="194" y="0" width="30" height="30">
<path d="M224 0H194V30H224V0Z" fill="white"/>
</mask>
<g mask="url(#mask1_5_32)">
<path d="M200.25 11.5H204V23.75H200.25V11.5ZM207.25 6.25H210.75V23.75H207.25V6.25ZM214.25 16.25H217.75V23.75H214.25V16.25Z" fill="white"/>
</g>
</g>
<g clip-path="url(#clip2_5_32)">
<mask id="mask2_5_32" style="mask-type:luminance" maskUnits="userSpaceOnUse" x="136" y="55" width="30" height="30">
<path d="M166 55H136V85H166V55Z" fill="white"/>
</mask>
<g mask="url(#mask2_5_32)">
<path d="M159.75 58.75H142.25C140.875 58.75 139.75 59.875 139.75 61.25V78.75C139.75 80.125 140.875 81.25 142.25 81.25H159.75C161.125 81.25 162.25 80.125 162.25 78.75V61.25C162.25 59.875 161.125 58.75 159.75 58.75ZM152.287 63.825L153.613 62.5L155.375 64.2625L157.137 62.5L158.462 63.825L156.7 65.5875L158.462 67.35L157.137 68.675L155.375 66.925L153.613 68.6875L152.287 67.3625L154.05 65.6L152.287 63.825ZM143.812 64.65H150.062V66.525H143.812V64.65ZM150.375 75H147.875V77.5H146V75H143.5V73.125H146V70.625H147.875V73.125H150.375V75ZM158.5 76.5625H152.25V74.6875H158.5V76.5625ZM158.5 73.4375H152.25V71.5625H158.5V73.4375Z" fill="white"/>
</g>
</g>
<defs>
<linearGradient id="paint0_linear_5_32" x1="99.2546" y1="159.187" x2="89.0323" y2="242.441" gradientUnits="userSpaceOnUse">
<stop stop-color="#D9D9D9"/>
<stop offset="1" stop-color="#D9D9D9" stop-opacity="0"/>
</linearGradient>
<linearGradient id="paint1_linear_5_32" x1="142" y1="2" x2="142" y2="186" gradientUnits="userSpaceOnUse">
<stop stop-color="#D9D9D9" stop-opacity="0"/>
<stop offset="1" stop-color="#D9D9D9"/>
</linearGradient>
<clipPath id="clip0_5_32">
<rect width="30" height="30" fill="white" transform="translate(60 24)"/>
</clipPath>
<clipPath id="clip1_5_32">
<rect width="30" height="30" fill="white" transform="translate(194)"/>
</clipPath>
<clipPath id="clip2_5_32">
<rect width="30" height="30" fill="white" transform="translate(136 55)"/>
</clipPath>
</defs>
</svg>
